#N canvas 0 38 1740 887 10;
#X msg 277 389 triangle;
#X msg 339 390 sawtooth;
#X msg 397 390 pulse;
#X obj 360 472 symbol;
#X obj 143 195 hsl 128 50 0 127 0 0 empty empty Volumen 2 -12 0 15
-133184 -260160 -260160 8400 1;
#X obj 130 348 dbtorms;
#X floatatom 160 372 5 0 0 0 - - -, f 5;
#X obj 6 496 *~;
#X obj 130 396 pack f 10;
#X obj 130 420 line~;
#X obj 45 343 * 12;
#X obj 6 464 tabosc4~;
#X obj 7 406 mtof~;
#X obj 7 376 +;
#X floatatom 8 343 5 0 0 0 - - -, f 5;
#X msg 219 392 sinewave;
#X msg 360 495 set \$1;
#X msg 442 390 pulse2;
#X obj 24 310 t b;
#X obj -258 35 bng 15 250 50 0 empty empty empty 17 7 0 10 -262144
-1 -1;
#X obj 184 110 hradio 50 0 0 7 empty empty Oct 10 -12 0 15 -133184
-260160 -260160 4;
#X obj 46 278 - 3;
#X floatatom 57 385 5 0 0 0 - - -, f 5;
#X obj -38 42 inlet;
#X obj 6 519 outlet~;
#X obj 382 195 bng 50 250 50 0 empty empty Saw 0 -10 0 10 -133184 -260160
-260160;
#X obj 282 195 bng 50 250 50 0 empty empty Sin 0 -10 0 10 -133184 -260160
-260160;
#X obj 333 195 bng 50 250 50 0 empty empty Tri 0 -10 0 10 -133184 -260160
-260160;
#X obj 519 390 waveforms~;
#X obj 433 195 bng 50 250 50 0 empty empty Pul1 0 -10 0 10 -133184
-260160 -260160;
#X obj 483 195 bng 50 250 50 0 empty empty Pul2 0 -10 0 10 -133184
-260160 -260160;
#X obj 283 195 hradio 50 0 0 5 empty empty wave 0 -25 0 15 -133184
-260160 -260160 3;
#X obj 283 268 sel 0 1 2 3 4;
#X connect 0 0 3 0;
#X connect 1 0 3 0;
#X connect 2 0 3 0;
#X connect 3 0 16 0;
#X connect 4 0 5 0;
#X connect 5 0 6 0;
#X connect 5 0 8 0;
#X connect 7 0 24 0;
#X connect 8 0 9 0;
#X connect 9 0 7 1;
#X connect 10 0 13 1;
#X connect 10 0 22 0;
#X connect 11 0 7 0;
#X connect 12 0 11 0;
#X connect 13 0 12 0;
#X connect 14 0 13 0;
#X connect 15 0 3 0;
#X connect 16 0 11 0;
#X connect 17 0 3 0;
#X connect 18 0 14 0;
#X connect 20 0 21 0;
#X connect 21 0 18 0;
#X connect 21 0 10 0;
#X connect 23 0 14 0;
#X connect 31 0 32 0;
#X connect 32 0 15 0;
#X connect 32 1 0 0;
#X connect 32 2 1 0;
#X connect 32 3 2 0;
#X connect 32 4 17 0;
#X coords 0 -1 1 1 406 159 1 137 90;
