#N canvas 633 30 622 675 10;
#X declare -lib Gem;
#X obj 188 24 cnv 15 374 653 empty empty empty 20 12 0 14 -66577 -66577
0;
#X obj 212 219 part_source;
#X obj 212 165 part_head;
#X obj 212 278 part_killold;
#X obj 280 433 part_color;
#X obj 280 471 part_render;
#X obj 280 667 sphere;
#X floatatom 372 106 5 0 0 0 - - -, f 5;
#X msg 372 130 speed \$1;
#X floatatom 372 179 5 0 0 0 - - -, f 5;
#X floatatom 372 227 5 0 0 0 - - -, f 5;
#X floatatom 372 329 5 0 0 0 - - -, f 5;
#X floatatom 400 623 5 0 0 0 - - -, f 5;
#X floatatom 455 623 5 0 0 0 - - -, f 5;
#X obj 17 62 declare -lib Gem;
#X obj 11 304 cnv 15 150 100 empty empty empty 20 12 0 14 -62416 -66577
0;
#X obj 19 259 gemhead;
#X msg 106 357 1 1 1;
#X obj 33 332 tgl 15 0 empty empty empty 0 -6 0 8 -262144 -1 -1 0 1
;
#X msg 33 353 debug \$1;
#X floatatom 99 263 5 0 0 0 - - -, f 5;
#X obj 19 281 rotateXYZ 0 -120 0;
#X msg 105 334 1 1 0;
#X obj 19 379 world_light;
#X obj 28 309 tgl 20 0 empty \$0-onoff empty 17 7 0 10 -262144 -1 -1
0 1;
#X obj 244 65 tgl 15 0 empty empty empty 17 7 0 10 -262144 -1 -1 1
1;
#X obj 376 296 hsl 128 15 0 1 0 0 empty empty empty -2 -8 0 10 -262144
-1 -1 1850 1;
#X obj 403 599 hsl 128 15 0 1 0 0 empty empty empty -2 -8 0 10 -262144
-1 -1 10900 1;
#X obj 608 98 cnv 15 100 60 empty empty empty 20 12 0 14 -195568 -66577
0;
#N canvas 0 22 450 300 gemwin 0;
#X obj 132 136 gemwin;
#X obj 67 89 outlet;
#X obj 67 10 inlet;
#X obj 67 41 route create;
#X msg 67 70 set destroy;
#X msg 142 68 set create;
#X msg 256 112 destroy;
#X obj 322 45 inlet;
#X msg 132 112 create \, 1;
#X msg 253 51 dimen 800 600;
#X connect 2 0 3 0;
#X connect 3 0 4 0;
#X connect 3 0 8 0;
#X connect 3 1 5 0;
#X connect 3 1 6 0;
#X connect 4 0 1 0;
#X connect 5 0 1 0;
#X connect 6 0 0 0;
#X connect 7 0 0 0;
#X connect 8 0 0 0;
#X connect 9 0 0 0;
#X restore 617 137 pd gemwin;
#X msg 617 118 destroy;
#X text 613 97 Create window:;
#X obj 675 38 cnv 15 85 50 empty empty empty 20 12 0 14 -24198 -66577
0;
#X msg 677 65 lighting \$1;
#X obj 677 43 tgl 15 0 empty empty empty 0 -6 0 8 -262144 -1 -1 0 1
;
#X obj 366 55 hsl 128 15 0 1 0 0 empty empty empty -2 -8 0 10 -262144
-1 -1 0 1;
#X obj 584 449 pix_texture;
#X obj 584 225 gemhead;
#X obj 585 259 pix_video;
#X obj 639 318 pix_rgba;
#X obj 639 343 pix_movement;
#X obj 699 292 hsl 128 15 0 1 0 0 empty empty empty -2 -8 0 10 -262144
-1 -1 2100 1;
#X obj 639 368 alpha;
#X obj 639 393 pix_blob;
#X floatatom 694 427 5 0 0 0 - - -, f 5;
#X floatatom 745 426 5 0 0 0 - - -, f 5;
#X obj 700 365 hradio 15 0 0 5 empty empty empty 0 -8 0 10 -262144
-1 -1 4;
#X obj 694 451 * 10.66;
#X obj 694 476 - 5.33;
#X obj 745 450 * -3;
#X obj 745 475 + 4;
#X floatatom 694 501 5 0 0 0 - - -, f 5;
#X floatatom 745 500 5 0 0 0 - - -, f 5;
#X obj 584 473 rectangle 5.33 4;
#X obj 212 361 part_orbitpoint;
#X obj 747 570 pack f f f;
#X msg 792 501 0;
#X obj 744 597 s p;
#X obj 245 335 r p;
#X obj 794 452 loadbang;
#X floatatom 477 491 3 -4 4 0 X - -, f 3;
#X obj 279 581 translateXYZ 1 2 0;
#X floatatom 477 522 3 -4 4 0 Y - -, f 3;
#X floatatom 478 556 3 -16 3 0 Z - -, f 3;
#X msg 99 227 6;
#X obj 535 553 - 3;
#X msg 298 606 draw line;
#X obj 527 45 env~;
#X obj 579 13 adc~;
#X floatatom 527 70 5 0 0 0 - - -, f 5;
#X obj 505 119 * 2;
#X floatatom 433 199 5 0 0 0 - - -, f 5;
#X obj 485 171 line;
#X obj 460 257 / 10;
#X msg 489 142 \$1 1000;
#X obj 507 98 - 56;
#X obj 667 207 pix_biquad;
#X obj 455 340 cnv 15 160 90 empty empty empty 20 12 0 14 -24198 -66577
0;
#X obj 455 409 pix_lumaoffset;
#X floatatom 501 354 5 0 0 2 offset - -, f 5;
#X floatatom 548 354 5 0 0 2 gap - -, f 5;
#X obj 537 371 tgl 15 0 empty empty empty 0 -6 0 8 -262144 -1 -1 1
1;
#X msg 537 389 smooth \$1;
#X msg 469 388 fill \$1;
#X obj 469 370 tgl 15 0 empty empty empty 0 -6 0 8 -262144 -1 -1 1
1;
#X floatatom 601 576 5 0 0 2 scale - -, f 5;
#X floatatom 641 576 5 0 255 2 floor - -, f 5;
#X obj 641 594 / 255;
#X floatatom 681 576 5 0 255 2 ceiling - -, f 5;
#X obj 681 594 / 255;
#X obj 583 630 pix_backlight;
#X obj 601 595 / 100;
#X obj 528 297 pix_gain;
#X msg 506 223 0 0.4 0.8 1;
#X msg 505 202 0.5 0.3 0.8;
#X msg 366 388 0.7 0 0.7;
#X msg 360 418 0.4 0 0.7;
#X obj 212 303 part_velocity sphere 0 0 0.1 0.1, f 21;
#X obj 212 108 gemhead 45;
#X msg 494 576 -0.6;
#X obj 406 78 - 0.5;
#X obj 399 199 - 20;
#X connect 1 0 3 0;
#X connect 2 0 1 0;
#X connect 3 0 97 0;
#X connect 4 0 5 0;
#X connect 5 0 61 0;
#X connect 7 0 8 0;
#X connect 8 0 2 0;
#X connect 9 0 1 1;
#X connect 10 0 3 1;
#X connect 11 0 54 2;
#X connect 12 0 6 1;
#X connect 13 0 6 2;
#X connect 16 0 21 0;
#X connect 17 0 23 1;
#X connect 18 0 19 0;
#X connect 19 0 23 0;
#X connect 20 0 21 2;
#X connect 21 0 23 0;
#X connect 22 0 23 1;
#X connect 24 0 23 0;
#X connect 25 0 98 0;
#X connect 26 0 11 0;
#X connect 27 0 12 0;
#X connect 29 0 30 0;
#X connect 30 0 29 0;
#X connect 33 0 29 1;
#X connect 34 0 33 0;
#X connect 35 0 7 0;
#X connect 36 0 53 0;
#X connect 37 0 38 0;
#X connect 38 0 39 0;
#X connect 38 0 90 0;
#X connect 39 0 40 0;
#X connect 40 0 42 0;
#X connect 41 0 40 1;
#X connect 42 0 43 0;
#X connect 43 1 44 0;
#X connect 43 2 45 0;
#X connect 44 0 47 0;
#X connect 45 0 49 0;
#X connect 46 0 43 1;
#X connect 47 0 48 0;
#X connect 48 0 51 0;
#X connect 49 0 50 0;
#X connect 50 0 52 0;
#X connect 51 0 55 0;
#X connect 51 0 60 0;
#X connect 52 0 55 1;
#X connect 52 0 65 0;
#X connect 54 0 4 0;
#X connect 55 0 57 0;
#X connect 56 0 55 2;
#X connect 58 0 54 1;
#X connect 59 0 56 0;
#X connect 60 0 61 1;
#X connect 61 0 6 0;
#X connect 62 0 61 2;
#X connect 63 0 61 3;
#X connect 64 0 20 0;
#X connect 65 0 62 0;
#X connect 66 0 6 0;
#X connect 67 0 69 0;
#X connect 68 0 67 0;
#X connect 69 0 75 0;
#X connect 70 0 74 0;
#X connect 71 0 73 0;
#X connect 71 0 101 0;
#X connect 72 0 71 0;
#X connect 73 0 100 0;
#X connect 74 0 72 0;
#X connect 75 0 70 0;
#X connect 78 0 92 0;
#X connect 79 0 78 1;
#X connect 80 0 78 2;
#X connect 81 0 82 0;
#X connect 82 0 78 0;
#X connect 83 0 78 0;
#X connect 84 0 83 0;
#X connect 85 0 91 0;
#X connect 86 0 87 0;
#X connect 87 0 90 2;
#X connect 88 0 89 0;
#X connect 89 0 90 3;
#X connect 90 0 78 0;
#X connect 91 0 90 1;
#X connect 92 0 36 0;
#X connect 93 0 92 2;
#X connect 94 0 92 2;
#X connect 95 0 4 1;
#X connect 96 0 4 2;
#X connect 97 0 54 0;
#X connect 98 0 2 0;
#X connect 99 0 63 0;
#X connect 100 0 35 0;
#X connect 101 0 9 0;
