#N canvas 20 38 1720 910 10;
#X obj -87 154 metro 500;
#X obj -87 199 f;
#X obj -31 198 + 1;
#X obj -147 159 == 0;
#X obj -87 224 % 16;
#X obj -87 270 + 0;
#X obj -87 295 *;
#X floatatom 76 232 5 0 0 1 Notes - -, f 5;
#X floatatom 76 195 5 0 0 1 offset - -, f 5;
#X floatatom 76 269 5 0 0 1 beat beat -, f 5;
#X obj -87 107 tgl 15 0 empty empty empty 17 7 0 10 -262144 -1 -1 0
1;
#X obj -155 273 + 1;
#X obj -155 308 s beat;
#X obj -87 320 % 16;
#X obj -87 345 <;
#X obj -87 370 sel 1;
#X obj -87 395 bng 15 250 50 0 empty empty empty 17 7 0 10 -262144
-1 -1;
#X obj -140 476 vline~;
#N canvas 0 0 450 300 (subpatch) 0;
#X array array2 10 float 3 black #ff80ff;
#A 0 1 1 1 1 -0.714286 -0.985715 -1 -1 -1 -1;
#X coords 0 1 10 -1 200 140 1;
#X restore 1248 44 graph;
#X obj 243 496 vline~;
#X obj 243 521 *~;
#X obj 309 497 hsl 128 15 0.01 1 1 0 empty uno empty -2 -8 0 10 -262144
-1 -1 12700 1;
#X obj 516 895 dac~;
#X obj 243 371 f;
#X obj 299 370 + 1;
#X obj 243 320 tgl 15 0 empty uno empty 17 7 0 10 -262144 -1 -1 1 1
;
#X obj 243 396 % 10;
#X msg 243 473 \$1 \$2;
#X obj 243 443 pack;
#X obj 261 319 hsl 128 15 0.05 5 1 0 empty empty empty -2 -8 0 10 -262144
-1 -1 12700 1;
#X obj 243 347 metro;
#X obj 499 506 vline~;
#X obj 499 531 *~;
#X obj 553 499 hsl 128 15 0.01 1 1 0 empty empty empty -2 -8 0 10 -262144
-1 -1 9700 1;
#X obj 499 375 f;
#X obj 555 374 + 1;
#X obj 499 314 tgl 15 0 empty uno empty 17 7 0 10 -262144 -1 -1 1 1
;
#X obj 499 400 % 10;
#X msg 499 480 \$1 \$2;
#X obj 499 450 pack;
#X obj 533 317 hsl 128 15 0.05 5 1 0 empty empty empty -2 -8 0 10 -262144
-1 -1 8262 1;
#X obj 499 350 metro;
#X obj 258 161 hsl 128 15 0.05 5 1 0 empty empty empty -2 -8 0 10 -262144
-1 -1 12700 1;
#X obj 749 503 vline~;
#X obj 749 528 *~;
#X obj 800 501 hsl 128 15 0.01 1 1 0 empty empty empty -2 -8 0 10 -262144
-1 -1 12700 1;
#X obj 749 368 f;
#X obj 805 367 + 1;
#X obj 749 316 tgl 15 0 empty uno empty 17 7 0 10 -262144 -1 -1 1 1
;
#X obj 749 393 % 10;
#X msg 749 470 \$1 \$2;
#X obj 749 440 pack;
#X obj 787 314 hsl 128 15 0.05 5 1 0 empty empty empty -2 -8 0 10 -262144
-1 -1 10173 1;
#X obj 749 343 metro;
#X obj 535 764 hsl 128 15 25 2500 1 0 empty dosqui empty -2 -8 0 10
-262144 -1 -1 150 1;
#X obj 503 697 *~;
#X obj 573 669 hsl 128 15 0 1 0 0 empty uno empty -2 -8 0 10 -262144
-1 -1 6500 1;
#X obj 481 261 * 0.2;
#X obj 756 258 * 0.4;
#X obj 571 796 hsl 128 15 0 8 0 0 empty empty empty -2 -8 0 10 -262144
-1 -1 12700 1;
#X obj 501 838 vcf~ 10000 1;
#X obj 503 942 delwrite~ audio-buffer 5000;
#X obj 738 803 delread~ audio-buffer 0;
#X obj 738 775 hsl 128 15 0 5000 0 0 empty empty empty -2 -8 0 10 -262144
-1 -1 12700 1;
#X obj 738 858 *~;
#X obj 753 831 hsl 128 15 0 1 0 0 empty empty empty -2 -8 0 10 -262144
-1 -1 12700 1;
#X obj 968 1040 bng 15 250 50 0 empty empty empty 17 7 0 10 -262144
-1 -1;
#X obj 955 426 tabread array2;
#X obj 955 502 vline~;
#X obj 955 527 *~;
#X obj 1021 503 hsl 128 15 0.01 1 1 0 empty empty empty -2 -8 0 10
-262144 -1 -1 6000 1;
#X obj 955 377 f;
#X obj 1011 376 + 1;
#X obj 955 326 tgl 15 0 empty empty empty 17 7 0 10 -262144 -1 -1 1
1;
#X obj 955 402 % 10;
#X msg 955 479 \$1 \$2;
#X obj 955 449 pack;
#X obj 973 325 hsl 128 15 0.05 5 1 0 empty empty empty -2 -8 0 10 -262144
-1 -1 9380 1;
#X obj 955 353 metro;
#X obj 1442 440 tabread array2;
#X obj 1442 521 vline~;
#X obj 1445 553 *~;
#X obj 1496 514 hsl 128 15 0.01 1 1 0 empty empty empty -2 -8 0 10
-262144 -1 -1 3900 1;
#X obj 1442 390 f;
#X obj 1498 389 + 1;
#X obj 1442 329 tgl 15 0 empty empty empty 17 7 0 10 -262144 -1 -1
1 1;
#X obj 1442 415 % 10;
#X msg 1442 495 \$1 \$2;
#X obj 1442 465 pack;
#X obj 1476 332 hsl 128 15 0.05 5 1 0 empty empty empty -2 -8 0 10
-262144 -1 -1 4942 1;
#X obj 1442 365 metro;
#X obj 970 167 hsl 128 15 0.05 5 1 0 empty empty empty -2 -8 0 10 -262144
-1 -1 9380 1;
#X obj 1201 429 tabread array2;
#X obj 1201 515 vline~;
#X obj 1201 540 *~;
#X obj 1252 513 hsl 128 15 0.01 1 1 0 empty empty empty -2 -8 0 10
-262144 -1 -1 7800 1;
#X obj 1201 380 f;
#X obj 1257 379 + 1;
#X obj 1201 328 tgl 15 0 empty empty empty 17 7 0 10 -262144 -1 -1
1 1;
#X obj 1201 405 % 10;
#X msg 1201 482 \$1 \$2;
#X obj 1201 452 pack;
#X obj 1239 326 hsl 128 15 0.05 5 1 0 empty empty empty -2 -8 0 10
-262144 -1 -1 6853 1;
#X obj 1201 355 metro;
#X obj 1424 276 * 0.2;
#X obj 1208 270 * 0.4;
#X obj 839 232 * 0.3;
#X obj 243 420 tabread array1;
#X obj 499 425 tabread array1;
#X obj 749 417 tabread array1;
#N canvas 0 0 450 300 (subpatch) 0;
#X array array1 10 float 3 black #ffffff;
#A 0 1 1 1 1 1 -1 -1 -1 -1 -1;
#X coords 0 1 10 -1 200 140 1;
#X restore 527 42 graph;
#X obj -28 497 line;
#X obj -52 398 bng 15 250 50 0 empty empty empty 17 7 0 10 -262144
-1 -1;
#X msg -31 427 1 1000;
#X msg -8 457 0 1000;
#X obj 1786 231 metro 500;
#X obj 1786 276 f;
#X obj 1842 275 + 1;
#X obj 1786 301 % 16;
#X obj 1786 347 + 0;
#X obj 1786 372 *;
#X floatatom 1949 309 5 0 0 1 Notes - -, f 5;
#X floatatom 1949 272 5 0 0 1 offset - -, f 5;
#X floatatom 1949 346 5 0 0 1 beat beat -, f 5;
#X obj 1786 184 tgl 15 0 empty empty empty 17 7 0 10 -262144 -1 -1
0 1;
#X obj 1786 397 % 16;
#X obj 1786 422 <;
#X obj 1786 447 sel 1;
#X obj 1786 472 bng 15 250 50 0 empty empty empty 17 7 0 10 -262144
-1 -1;
#X obj 1845 574 line;
#X obj 1821 475 bng 15 250 50 0 empty empty empty 17 7 0 10 -262144
-1 -1;
#X msg 1865 534 0 1000;
#X msg 1842 504 0.1 300;
#X obj -22 110 hsl 128 15 200 1000 0 0 empty empty empty -2 -8 0 10
-262144 -1 -1 0 1;
#X obj -3 145 s met;
#X obj 1830 197 r met;
#X obj -36 644 metro 500;
#X obj -36 689 f;
#X obj 20 688 + 1;
#X obj -96 649 == 0;
#X obj -36 714 % 16;
#X obj -36 760 + 0;
#X obj -36 785 *;
#X floatatom 127 722 5 0 0 1 Notes - -, f 5;
#X floatatom 127 685 5 0 0 1 offset - -, f 5;
#X floatatom 127 759 5 0 0 1 beat beat -, f 5;
#X obj -36 597 tgl 15 0 empty empty empty 17 7 0 10 -262144 -1 -1 0
1;
#X obj -104 763 + 1;
#X obj -104 798 s beat;
#X obj -36 810 % 16;
#X obj -36 835 <;
#X obj -36 860 sel 1;
#X obj -36 885 bng 15 250 50 0 empty empty empty 17 7 0 10 -262144
-1 -1;
#X obj -89 966 vline~;
#X obj 23 987 line;
#X obj -1 888 bng 15 250 50 0 empty empty empty 17 7 0 10 -262144 -1
-1;
#X obj 48 635 r met;
#X msg 20 917 1 10000;
#X msg 43 947 0 10000;
#X obj 1066 745 loadbang;
#X obj 1067 797 s uno;
#X msg 1067 772 1, f 2;
#X msg 1112 773 2500;
#X obj 1114 802 s dosqui;
#X obj 837 984 writesf~ 2;
#X msg 845 883 open first_try;
#X msg 871 908 start;
#X msg 892 933 stop;
#X connect 0 0 1 0;
#X connect 1 0 2 0;
#X connect 1 0 4 0;
#X connect 2 0 1 1;
#X connect 3 0 1 1;
#X connect 4 0 5 0;
#X connect 4 0 11 0;
#X connect 5 0 6 0;
#X connect 6 0 13 0;
#X connect 7 0 6 1;
#X connect 7 0 14 1;
#X connect 8 0 5 1;
#X connect 10 0 0 0;
#X connect 10 0 3 0;
#X connect 11 0 12 0;
#X connect 13 0 14 0;
#X connect 14 0 15 0;
#X connect 15 0 16 0;
#X connect 15 1 112 0;
#X connect 16 0 113 0;
#X connect 19 0 20 0;
#X connect 20 0 55 0;
#X connect 21 0 20 1;
#X connect 23 0 24 0;
#X connect 23 0 26 0;
#X connect 24 0 23 1;
#X connect 25 0 30 0;
#X connect 26 0 107 0;
#X connect 27 0 19 0;
#X connect 28 0 27 0;
#X connect 29 0 30 1;
#X connect 29 0 28 1;
#X connect 30 0 23 0;
#X connect 31 0 32 0;
#X connect 32 0 55 0;
#X connect 33 0 32 1;
#X connect 34 0 35 0;
#X connect 34 0 37 0;
#X connect 35 0 34 1;
#X connect 36 0 41 0;
#X connect 37 0 108 0;
#X connect 38 0 31 0;
#X connect 39 0 38 0;
#X connect 40 0 41 1;
#X connect 40 0 39 1;
#X connect 41 0 34 0;
#X connect 42 0 29 0;
#X connect 42 0 57 0;
#X connect 42 0 58 0;
#X connect 42 0 106 0;
#X connect 43 0 44 0;
#X connect 44 0 55 0;
#X connect 45 0 44 1;
#X connect 46 0 47 0;
#X connect 46 0 49 0;
#X connect 47 0 46 1;
#X connect 48 0 53 0;
#X connect 49 0 109 0;
#X connect 50 0 43 0;
#X connect 51 0 50 0;
#X connect 52 0 53 1;
#X connect 52 0 51 1;
#X connect 53 0 46 0;
#X connect 54 0 60 1;
#X connect 55 0 60 0;
#X connect 56 0 55 1;
#X connect 57 0 40 0;
#X connect 58 0 52 0;
#X connect 59 0 60 2;
#X connect 60 0 22 0;
#X connect 60 0 61 0;
#X connect 60 0 164 0;
#X connect 60 1 22 1;
#X connect 60 1 164 1;
#X connect 62 0 64 0;
#X connect 63 0 62 0;
#X connect 64 0 22 1;
#X connect 65 0 64 1;
#X connect 67 0 76 0;
#X connect 68 0 69 0;
#X connect 69 0 55 0;
#X connect 70 0 69 1;
#X connect 71 0 72 0;
#X connect 71 0 74 0;
#X connect 72 0 71 1;
#X connect 73 0 78 0;
#X connect 74 0 67 0;
#X connect 75 0 68 0;
#X connect 76 0 75 0;
#X connect 77 0 78 1;
#X connect 77 0 76 1;
#X connect 78 0 71 0;
#X connect 79 0 88 0;
#X connect 80 0 81 0;
#X connect 81 0 55 0;
#X connect 82 0 81 1;
#X connect 83 0 84 0;
#X connect 83 0 86 0;
#X connect 84 0 83 1;
#X connect 85 0 90 0;
#X connect 86 0 79 0;
#X connect 87 0 80 0;
#X connect 88 0 87 0;
#X connect 89 0 90 1;
#X connect 89 0 88 1;
#X connect 90 0 83 0;
#X connect 91 0 77 0;
#X connect 91 0 104 0;
#X connect 91 0 105 0;
#X connect 92 0 101 0;
#X connect 93 0 94 0;
#X connect 94 0 55 0;
#X connect 95 0 94 1;
#X connect 96 0 97 0;
#X connect 96 0 99 0;
#X connect 97 0 96 1;
#X connect 98 0 103 0;
#X connect 99 0 92 0;
#X connect 100 0 93 0;
#X connect 101 0 100 0;
#X connect 102 0 103 1;
#X connect 102 0 101 1;
#X connect 103 0 96 0;
#X connect 104 0 89 0;
#X connect 105 0 102 0;
#X connect 106 0 91 0;
#X connect 107 0 28 0;
#X connect 108 0 39 0;
#X connect 109 0 51 0;
#X connect 111 0 21 0;
#X connect 111 0 33 0;
#X connect 111 0 45 0;
#X connect 112 0 114 0;
#X connect 113 0 111 0;
#X connect 114 0 111 0;
#X connect 115 0 116 0;
#X connect 116 0 117 0;
#X connect 116 0 118 0;
#X connect 117 0 116 1;
#X connect 118 0 119 0;
#X connect 119 0 120 0;
#X connect 120 0 125 0;
#X connect 121 0 120 1;
#X connect 121 0 126 1;
#X connect 122 0 119 1;
#X connect 124 0 115 0;
#X connect 125 0 126 0;
#X connect 126 0 127 0;
#X connect 127 0 128 0;
#X connect 127 1 130 0;
#X connect 128 0 132 0;
#X connect 129 0 95 0;
#X connect 129 0 82 0;
#X connect 129 0 70 0;
#X connect 130 0 131 0;
#X connect 131 0 129 0;
#X connect 132 0 129 0;
#X connect 133 0 0 1;
#X connect 133 0 134 0;
#X connect 135 0 115 1;
#X connect 136 0 137 0;
#X connect 137 0 138 0;
#X connect 137 0 140 0;
#X connect 138 0 137 1;
#X connect 139 0 137 1;
#X connect 140 0 141 0;
#X connect 140 0 147 0;
#X connect 141 0 142 0;
#X connect 142 0 149 0;
#X connect 143 0 142 1;
#X connect 143 0 150 1;
#X connect 144 0 141 1;
#X connect 146 0 136 0;
#X connect 146 0 139 0;
#X connect 147 0 148 0;
#X connect 149 0 150 0;
#X connect 150 0 151 0;
#X connect 151 0 152 0;
#X connect 151 1 155 0;
#X connect 152 0 158 0;
#X connect 155 0 157 0;
#X connect 156 0 136 1;
#X connect 157 0 154 0;
#X connect 158 0 154 0;
#X connect 159 0 161 0;
#X connect 159 0 162 0;
#X connect 161 0 160 0;
#X connect 162 0 163 0;
#X connect 165 0 164 0;
#X connect 166 0 164 0;
#X connect 167 0 164 0;
